<svg width="24" height="22" viewBox="0 0 24 22" fill="none" xmlns="http://www.w3.org/2000/svg">
<path d="M21.9042 1L13.3198 7.25211L14.9073 3.56345L21.9042 1Z" fill="#E2761B" stroke="#E2761B" stroke-linecap="round" stroke-linejoin="round"/>
<path d="M2.08691 1L10.6022 7.31134L9.09243 3.56345L2.08691 1Z" fill="#E4761B" stroke="#E4761B" stroke-linecap="round" stroke-linejoin="round"/>
<path d="M18.8158 15.4924L16.5295 18.9272L21.4213 20.247L22.8276 15.5685L18.8158 15.4924Z" fill="#E4761B" stroke="#E4761B" stroke-linecap="round" stroke-linejoin="round"/>
<path d="M1.18115 15.5685L2.5788 20.247L7.47059 18.9272L5.1843 15.4924L1.18115 15.5685Z" fill="#E4761B" stroke="#E4761B" stroke-linecap="round" stroke-linejoin="round"/>
<path d="M7.19444 9.68865L5.8313 11.7106L10.6886 11.9222L10.516 6.80371L7.19444 9.68865Z" fill="#E4761B" stroke="#E4761B" stroke-linecap="round" stroke-linejoin="round"/>
<path d="M16.7967 9.68864L13.432 6.74448L13.3198 11.9221L18.1685 11.7106L16.7967 9.68864Z" fill="#E4761B" stroke="#E4761B" stroke-linecap="round" stroke-linejoin="round"/>
<path d="M7.47095 18.9272L10.387 17.5313L7.86781 15.6024L7.47095 18.9272Z" fill="#E4761B" stroke="#E4761B" stroke-linecap="round" stroke-linejoin="round"/>
<path d="M13.6045 17.5313L16.5292 18.9272L16.1237 15.6024L13.6045 17.5313Z" fill="#E4761B" stroke="#E4761B" stroke-linecap="round" stroke-linejoin="round"/>
<path d="M16.5292 18.9272L13.6045 17.5313L13.8374 19.401L13.8116 20.1878L16.5292 18.9272Z" fill="#D7C1B3" stroke="#D7C1B3" stroke-linecap="round" stroke-linejoin="round"/>
<path d="M7.47095 18.9272L10.1886 20.1878L10.1713 19.401L10.387 17.5313L7.47095 18.9272Z" fill="#D7C1B3" stroke="#D7C1B3" stroke-linecap="round" stroke-linejoin="round"/>
<path d="M10.2315 14.3672L7.79858 13.665L9.51545 12.8951L10.2315 14.3672Z" fill="#233447" stroke="#233447" stroke-linecap="round" stroke-linejoin="round"/>
<path d="M13.76 14.3672L14.4761 12.8951L16.2016 13.665L13.76 14.3672Z" fill="#233447" stroke="#233447" stroke-linecap="round" stroke-linejoin="round"/>
<path d="M7.47085 18.9272L7.88497 15.4924L5.18457 15.5685L7.47085 18.9272Z" fill="#CD6116" stroke="#CD6116" stroke-linecap="round" stroke-linejoin="round"/>
<path d="M16.1155 15.4924L16.5296 18.9272L18.8159 15.5685L16.1155 15.4924Z" fill="#CD6116" stroke="#CD6116" stroke-linecap="round" stroke-linejoin="round"/>
<path d="M18.1685 11.7106L13.3198 11.9221L13.7685 14.3671L14.4845 12.8951L16.21 13.6649L18.1685 11.7106Z" fill="#CD6116" stroke="#CD6116" stroke-linecap="round" stroke-linejoin="round"/>
<path d="M7.79836 13.6649L9.52386 12.8951L10.2313 14.3671L10.6886 11.9221L5.8313 11.7106L7.79836 13.6649Z" fill="#CD6116" stroke="#CD6116" stroke-linecap="round" stroke-linejoin="round"/>
<path d="M5.8313 11.7106L7.86738 15.6023L7.79836 13.6649L5.8313 11.7106Z" fill="#E4751F" stroke="#E4751F" stroke-linecap="round" stroke-linejoin="round"/>
<path d="M16.2103 13.6649L16.124 15.6023L18.1687 11.7106L16.2103 13.6649Z" fill="#E4751F" stroke="#E4751F" stroke-linecap="round" stroke-linejoin="round"/>
<path d="M10.6885 11.9221L10.2312 14.3672L10.8006 17.2521L10.93 13.4535L10.6885 11.9221Z" fill="#E4751F" stroke="#E4751F" stroke-linecap="round" stroke-linejoin="round"/>
<path d="M13.3196 11.9221L13.0867 13.445L13.1902 17.2521L13.7682 14.3672L13.3196 11.9221Z" fill="#E4751F" stroke="#E4751F" stroke-linecap="round" stroke-linejoin="round"/>
<path d="M13.7687 14.3671L13.1907 17.2521L13.6048 17.5313L16.124 15.6023L16.2103 13.6649L13.7687 14.3671Z" fill="#F6851B" stroke="#F6851B" stroke-linecap="round" stroke-linejoin="round"/>
<path d="M7.79858 13.6649L7.8676 15.6023L10.3868 17.5313L10.8009 17.2521L10.2315 14.3671L7.79858 13.6649Z" fill="#F6851B" stroke="#F6851B" stroke-linecap="round" stroke-linejoin="round"/>
<path d="M13.8121 20.1878L13.838 19.401L13.6223 19.2149H10.3698L10.1713 19.401L10.1886 20.1878L7.47095 18.9272L8.41997 19.6887L10.3439 21H13.6482L15.5808 19.6887L16.5298 18.9272L13.8121 20.1878Z" fill="#C0AD9E" stroke="#C0AD9E" stroke-linecap="round" stroke-linejoin="round"/>
<path d="M13.6046 17.5313L13.1905 17.2521H10.8007L10.3866 17.5313L10.1709 19.401L10.3693 19.2149H13.6219L13.8376 19.401L13.6046 17.5313Z" fill="#161616" stroke="#161616" stroke-linecap="round" stroke-linejoin="round"/>
<path d="M22.2665 7.65821L22.9998 4.20643L21.9041 1L13.6045 7.04061L16.7967 9.68866L21.3088 10.9831L22.3096 9.84095L21.8782 9.53638L22.5684 8.91878L22.0335 8.51269L22.7237 7.99661L22.2665 7.65821Z" fill="#763D16" stroke="#763D16" stroke-linecap="round" stroke-linejoin="round"/>
<path d="M1 4.20643L1.73334 7.65821L1.26745 7.99661L1.95765 8.51269L1.43137 8.91878L2.12157 9.53638L1.6902 9.84095L2.68236 10.9831L7.19453 9.68866L10.3867 7.04061L2.08706 1L1 4.20643Z" fill="#763D16" stroke="#763D16" stroke-linecap="round" stroke-linejoin="round"/>
<path d="M21.3091 10.9831L16.797 9.68866L18.1687 11.7107L16.124 15.6024L18.8158 15.5685H22.8276L21.3091 10.9831Z" fill="#F6851B" stroke="#F6851B" stroke-linecap="round" stroke-linejoin="round"/>
<path d="M7.19451 9.68866L2.68233 10.9831L1.18115 15.5685H5.1843L7.86745 15.6024L5.83136 11.7107L7.19451 9.68866Z" fill="#F6851B" stroke="#F6851B" stroke-linecap="round" stroke-linejoin="round"/>
<path d="M13.32 11.9222L13.6047 7.0406L14.9161 3.56345H9.09253L10.3867 7.0406L10.6886 11.9222L10.7921 13.4619L10.8008 17.2521H13.1906L13.2078 13.4619L13.32 11.9222Z" fill="#F6851B" stroke="#F6851B" stroke-linecap="round" stroke-linejoin="round"/>
</svg>
