<svg width="24" height="24" viewBox="0 0 24 24" fill="none" xmlns="http://www.w3.org/2000/svg">
<circle cx="12" cy="12" r="12" fill="#3A9AFF"/>
<path d="M7.86655 8.9545C10.1507 6.3485 13.8519 6.3485 16.1335 8.9545L16.4072 9.26769C16.5213 9.39769 16.5213 9.61043 16.4072 9.74043L15.4693 10.81C15.411 10.875 15.3197 10.875 15.2614 10.81L14.8837 10.3786C13.2916 8.56153 10.7084 8.56153 9.11634 10.3786L8.71073 10.8396C8.65242 10.9046 8.56116 10.9046 8.50285 10.8396L7.56234 9.76703C7.44826 9.63702 7.44826 9.42429 7.56234 9.29428L7.86655 8.9545ZM18.0779 11.1705L18.9144 12.1248C19.0285 12.2548 19.0285 12.4676 18.9144 12.5976L15.1422 16.9025C15.0282 17.0325 14.8431 17.0325 14.729 16.9025L12.052 13.8474C12.0241 13.8149 11.9759 13.8149 11.948 13.8474L9.27098 16.9025C9.1569 17.0325 8.97184 17.0325 8.85776 16.9025L5.08556 12.5976C4.97148 12.4676 4.97148 12.2548 5.08556 12.1248L5.92214 11.1705C6.03622 11.0405 6.22128 11.0405 6.33536 11.1705L9.0124 14.2256C9.04029 14.2581 9.08846 14.2581 9.11634 14.2256L11.7934 11.1705C11.9075 11.0405 12.0925 11.0405 12.2066 11.1705L14.8837 14.2256C14.9115 14.2581 14.9597 14.2581 14.9876 14.2256L17.6646 11.1705C17.7787 11.0405 17.9638 11.0405 18.0779 11.1705Z" fill="white"/>
</svg>
