<svg width="12" height="12" viewBox="0 0 12 12" fill="none" xmlns="http://www.w3.org/2000/svg">
<path fill-rule="evenodd" clip-rule="evenodd" d="M6 1.125C3.30761 1.125 1.125 3.30761 1.125 6C1.125 8.69242 3.30761 10.875 6 10.875C8.69242 10.875 10.875 8.69242 10.875 6C10.875 3.30761 8.69242 1.125 6 1.125ZM0 6C0 2.68629 2.68629 0 6 0C9.31373 0 12 2.68629 12 6C12 9.31373 9.31373 12 6 12C2.68629 12 0 9.31373 0 6ZM6.75 8.25C6.75 8.66422 6.41422 9 6 9C5.58579 9 5.25 8.66422 5.25 8.25C5.25 7.83577 5.58579 7.5 6 7.5C6.41422 7.5 6.75 7.83577 6.75 8.25ZM5.19062 4.56406C5.251 4.44328 5.33274 4.33963 5.44483 4.2649C5.5534 4.19253 5.72343 4.125 6 4.125C6.20981 4.125 6.41468 4.18992 6.55313 4.29375C6.67655 4.38631 6.75 4.50757 6.75 4.6875C6.75 4.81996 6.71939 4.88536 6.69212 4.92626C6.65811 4.97729 6.59943 5.03371 6.48484 5.11012C6.42755 5.14831 6.36591 5.18543 6.29066 5.23058L6.28606 5.23334L6.28604 5.23335C6.21577 5.27552 6.13278 5.32531 6.05123 5.37967C5.88456 5.4908 5.68543 5.64534 5.53195 5.87559C5.35964 6.13408 5.42951 6.48331 5.68801 6.65563C5.9465 6.82793 6.29574 6.75806 6.46804 6.49957C6.50206 6.44852 6.56074 6.39209 6.67532 6.3157C6.73261 6.27751 6.79425 6.24039 6.8695 6.19524L6.87416 6.19244L6.8742 6.19242C6.94444 6.15027 7.0274 6.1005 7.10891 6.04615C7.27556 5.93504 7.4747 5.78053 7.62818 5.5503C7.78845 5.30996 7.875 5.02379 7.875 4.6875C7.875 4.11743 7.6047 3.67619 7.22812 3.39375C6.86656 3.12258 6.41518 3 6 3C5.52657 3 5.1341 3.11997 4.82079 3.32885C4.511 3.53537 4.31149 3.80672 4.18438 4.06094C4.04545 4.3388 4.15807 4.67669 4.43594 4.81562C4.7138 4.95455 5.05169 4.84192 5.19062 4.56406Z" fill="#6B707C"/>
</svg>
