<svg width="14" height="18" viewBox="0 0 14 18" fill="none" xmlns="http://www.w3.org/2000/svg">
<path d="M11.644 4.24984C11.0191 2.44835 9.31215 2.23261 7.31541 2.55622L6.69057 0L5.16658 0.384994L5.77632 2.87947C5.38013 2.98734 4.96849 3.09486 4.5723 3.20273L3.96257 0.69299L2.43859 1.07798L3.06342 3.63385C2.74345 3.72611 2.40803 3.81872 2.10316 3.89572V3.88046L0 4.41945L0.411641 6.08256C0.411641 6.08256 1.52434 5.77456 1.50888 5.80543C2.11827 5.65143 2.40803 5.95943 2.54536 6.26743L3.26152 9.19303C3.32263 9.17777 3.36829 9.16216 3.42905 9.16216L3.26152 9.20829L4.25198 13.3041C4.26709 13.5043 4.23688 13.8584 3.81014 13.9663C3.84069 13.9815 2.69744 14.2434 2.69744 14.2434L2.84988 16.1833L4.83116 15.6751C5.19714 15.5829 5.56277 15.4906 5.9133 15.4133L6.53814 18L8.06212 17.615L7.43728 15.0435C7.86403 14.9513 8.26021 14.8434 8.6564 14.7511L9.28124 17.307L10.8052 16.922L10.1804 14.3353C12.6952 13.5348 14.3259 12.4107 13.9449 9.88531C13.64 7.85282 12.5122 7.20632 10.9728 7.22157C11.75 6.52858 12.1006 5.57408 11.6433 4.24984H11.644ZM10.8667 10.3317C11.3391 12.2719 8.04702 12.8723 7.02599 13.1342L6.18761 9.70044C7.22409 9.45419 10.3788 8.33007 10.8667 10.3317ZM8.99218 5.68159C9.41892 7.43696 6.67547 7.92947 5.82198 8.14521L5.05981 5.03509C5.9133 4.80409 8.53452 3.83398 8.99183 5.68159H8.99218Z" fill="#89CC1D"/>
</svg>
