
        <svg xmlns="http://www.w3.org/2000/svg" xmlns:xlink="http://www.w3.org/1999/xlink" version="1.1" width="3187.5" 
        height="510.3672934142624" viewBox="0 0 3187.5 510.3672934142624">
			
			<g transform="scale(9.375) translate(10, 10)">
				<defs id="SvgjsDefs7215"></defs><g id="SvgjsG7216" featureKey="5TMTKC-0" transform="matrix(1.162790903985827,0,0,1.162790903985827,-8.139540763596072,-40.86047254348978)" fill="#f0d687"><g xmlns="http://www.w3.org/2000/svg" transform="translate(0,-952.36218)"><path style="color:;enable-background:accumulate;" d="m 7.000009,1016.3622 16,-1 c 0,-3.0491 2,-8 2,-8 0,0 2.5409,0 5,0 2,-4 5,-12.00002 7,-12.00002 0,0 1,-4 3,-4 2.6314,0 16.99998,9.00002 16.99998,9.00002 l -10.99998,16 c 0,0 5.41738,-2.8351 10.99998,-4 1.988,-0.4148 -0.2344,-4.7065 2,-5 1.929,-0.2534 4,-1 5,-1 1,0 2.0324,-13.24872 4,-11.00002 7,8.00002 21.4047,17.28082 25.000002,21.00002 l -12.000002,-17.00002 -3,4.00002 -9,-13.00002 -11,7 -10.99998,-8 -3,2 -5,-3 -4,6 -5,-2 -12,16.00002 -3.3749,-0.6251 -7.6251,8.6251" fill="#f0d687" stroke="none" marker="none" visibility="visible" display="inline" overflow="visible"></path></g></g><g id="SvgjsG7217" featureKey="7UBp9i-0" transform="matrix(2.256826831431279,0,0,2.256826831431279,119.99999677158333,-12.096589965512761)" fill="#fcd823"><path d="M9.44 13.92 l4.48 -7.94 l4.96 0 l0 14.02 l-4.68 0 l0 -5.24 l-2.98 5.24 l-3.58 0 l-4.54 -7.96 l0 -2.94 l5.46 9.34 l1.76 0 l5.44 -9.34 l0 9.34 l1.56 0 l0 -10.9 l-2.5 0 l-5.42 9.36 l-5.34 -9.36 l-2.5 0 l0 10.9 l1.54 0 l0 -2.94 l1.56 2.68 l0 1.82 l-4.66 0 l0 -14.02 l4.96 0 z M29.32 5.359999999999999 c4.2 0 7.62 3.42 7.62 7.64 s-3.42 7.62 -7.62 7.62 c-4.22 0 -7.64 -3.4 -7.64 -7.62 s3.42 -7.64 7.64 -7.64 z M29.32 19.08 c3.36 0 6.08 -2.72 6.08 -6.08 s-2.72 -6.1 -6.08 -6.1 c-3.38 0 -6.1 2.74 -6.1 6.1 s2.72 6.08 6.1 6.08 z M29.32 8.44 c2.5 0 4.54 2.06 4.54 4.56 s-2.04 4.54 -4.54 4.54 s-4.56 -2.04 -4.56 -4.54 s2.06 -4.56 4.56 -4.56 z M29.32 16 c1.66 0 3 -1.34 3 -3 c0 -1.68 -1.34 -3.02 -3 -3.02 c-1.68 0 -3.02 1.34 -3.02 3.02 c0 1.66 1.34 3 3.02 3 z M53.86 20 l-5.4 0 l-1.82 -3.14 l-3.5 0 l0 3.14 l-4.66 0 l0 -7.8 l11.44 0.02 c1.3 0 2.34 -1.06 2.34 -2.34 c0 -1.3 -1.04 -2.34 -2.34 -2.34 l-9.88 0 l0 1.56 l9.88 0 c0.42 0.02 0.74 0.36 0.74 0.78 s-0.32 0.76 -0.74 0.78 l-0.02 0 l-0.02 0 l-11.4 0 l0 -4.68 l11.44 0 c2.16 0 3.9 1.74 3.9 3.9 c0 2.14 -1.74 3.9 -3.9 3.9 l-9.88 -0.02 l0 4.68 l1.56 0 l0 -3.14 l5.94 0 c0.64 1.16 1.72 2.94 1.82 3.14 l1.8 0 c-0.16 -0.22 -1.08 -1.86 -1.82 -3.14 l1.8 0 c0.66 1.14 1.32 2.32 1.86 3.2 z M71.14 5.98 l0 4.68 l-10.62 0 l0 1.56 l7.88 0 l0 1.56 l-9.44 0 l0 -4.68 l10.62 0 l0 -1.56 l-12.18 0 l0 10.9 l12.18 0 l0 -1.56 l-10.62 0 l0 -1.56 l12.18 0 l0 4.68 l-15.3 0 l0 -14.02 l15.3 0 z M73.32 10.66 l0 -4.68 l15.3 0 l0 4.68 l-3.76 0 l0 -1.56 l2.2 0 l0 -1.56 l-12.18 0 l0 1.56 l5.32 0 l-0.02 9.34 l1.56 0 l0 -9.34 l1.56 0 l0 10.9 l-4.68 0 l0 -9.34 l-5.3 0 z"></path></g>
			</g>
		</svg>
	