<svg width="136" height="28" viewBox="0 0 136 28" fill="none" xmlns="http://www.w3.org/2000/svg">
<g opacity="0.28">
<path d="M24.5395 14.9978L24.5575 14.9993L26.4373 15.1969C26.5693 15.2112 26.6905 15.276 26.7761 15.3772L26.79 15.3945L26.7722 15.4034C26.86 15.5149 26.8988 15.6577 26.8793 15.7986C26.4686 19.0826 24.921 22.1162 22.5081 24.3669C20.0045 26.7024 16.716 28 13.3012 28C11.6427 28.0027 9.99834 27.6956 8.45171 27.0945L8.36745 27.0614C8.24086 27.0144 8.13915 26.9175 8.0853 26.7938L8.0772 26.774C8.02447 26.6508 8.02155 26.5121 8.06841 26.3872L8.8104 24.5665C8.91094 24.3091 9.19588 24.1795 9.45321 24.2707L9.47032 24.2771C13.2629 25.75 17.5585 24.9204 20.5391 22.1396C22.4362 20.3863 23.6596 18.0176 23.9949 15.4483C24.0305 15.183 24.2593 14.99 24.5215 14.997L24.5395 14.9978ZM68.9352 7.27071C70.5381 7.27071 71.7916 7.76257 72.5921 8.70717L72.6189 8.73918V7.93982C72.6297 7.71671 72.8014 7.53638 73.0207 7.5146L73.0386 7.51319H75.1773C75.3974 7.52849 75.5724 7.70268 75.5914 7.92195L75.5926 7.93982V19.8807C75.6618 21.5645 75.1472 23.2201 74.137 24.5646C72.985 25.9747 71.2348 26.6887 68.9352 26.6887C65.7383 26.6887 63.2156 24.6544 62.8003 21.7488C62.7797 21.5391 62.9068 21.344 63.1042 21.2783L63.1218 21.2728L65.2115 20.7788C65.2223 20.7764 65.2333 20.7743 65.2443 20.7727C65.4737 20.7389 65.6868 20.8985 65.7204 21.1292C65.9113 22.759 67.3041 23.9749 68.9352 23.9358C71.4062 23.9358 72.5688 22.6726 72.5918 20.0329L72.5921 19.9525V18.9062C71.6658 19.9511 70.3263 20.5284 68.9352 20.4825C65.3811 20.4825 62.8048 17.7072 62.8048 13.89C62.7723 12.1726 63.3735 10.5039 64.4926 9.20618C65.6291 7.9503 67.2469 7.24553 68.9352 7.27071ZM4.56823 21.7937L4.59473 21.7935L4.62133 21.7937C5.47446 21.8035 6.16136 22.4974 6.17063 23.3523L6.1707 23.379C6.1707 23.3879 6.1706 23.3968 6.17044 23.4057C6.15559 24.2811 5.43808 24.9787 4.56772 24.9638C3.69736 24.9489 3.00382 24.2272 3.01853 23.3518C3.03308 22.4943 3.7219 21.8074 4.56823 21.7937ZM105.957 7.10456L106.067 7.10538C109.887 7.15845 112.255 9.83327 112.255 14.1146C112.255 14.3411 112.242 14.5675 112.219 14.7927C112.199 14.9998 112.031 15.1595 111.826 15.1694L111.808 15.1699H102.726C102.782 17.0883 104.359 18.6062 106.267 18.5783C107.746 18.6718 109.094 17.7259 109.518 16.2971C109.595 16.092 109.815 15.9817 110.023 16.0405L110.04 16.0456L111.853 16.6878C111.953 16.7202 112.035 16.7916 112.081 16.8855L112.089 16.9034C112.139 17.0023 112.147 17.1172 112.112 17.2222C111.27 19.7295 108.897 21.3886 106.267 21.3088C104.543 21.326 102.883 20.6484 101.659 19.4271C100.323 18.0133 99.6101 16.1176 99.6814 14.1685C99.6814 9.78935 102.811 7.15756 105.866 7.10536L105.957 7.10456ZM54.5668 7.10457H54.5713C58.4604 7.10457 60.876 9.79002 60.876 14.1146C60.8756 14.3411 60.8637 14.5675 60.8402 14.7927C60.8222 15.0009 60.6526 15.1618 60.4466 15.1696L60.4294 15.1699H51.3476C51.4036 17.0936 52.9885 18.6137 54.9017 18.5784C56.3817 18.6735 57.7304 17.727 58.1523 16.2971C58.2279 16.0903 58.4494 15.9792 58.6578 16.0403L58.6747 16.0456L60.4874 16.6878C60.5934 16.7222 60.6796 16.8007 60.7241 16.9034C60.7665 17.0053 60.7665 17.1202 60.7241 17.2222C59.8827 19.7279 57.5124 21.3866 54.8839 21.3088C53.1566 21.3284 51.4935 20.6507 50.267 19.4271C48.9328 18.0122 48.22 16.1173 48.289 14.1685C48.289 9.74512 51.4815 7.10457 54.5668 7.10457ZM40.8146 7.10003C42.5604 7.10003 43.9714 7.52667 45.0162 8.36638C45.7227 8.93267 46.2463 9.69682 46.5209 10.5624L46.5217 10.5659C46.5576 10.7151 46.4704 10.8654 46.3257 10.9087L46.3111 10.9127L44.1455 11.6312C44.0494 11.6695 43.9424 11.6695 43.8464 11.6312C43.7644 11.5927 43.7027 11.5208 43.6767 11.4336L43.6652 11.3908C43.4679 10.6816 42.8231 9.54301 40.8146 9.54301C39.3858 9.54301 38.5286 10.3693 38.5286 11.1687L38.5289 11.2003C38.5396 11.7201 38.8206 12.3725 40.0529 12.6206L40.0913 12.6281L42.4756 13.0772C45.1101 13.6107 46.6287 15.0509 46.6588 17.0579L46.6593 17.1189L46.6504 17.0831L46.6498 17.1439C46.6115 19.1558 44.6766 21.2728 41.1138 21.2728C36.939 21.2728 35.3004 18.8972 34.9967 17.4961C34.9769 17.3496 35.0658 17.2111 35.2049 17.168L35.22 17.1638L37.4525 16.4633C37.4924 16.4567 37.5331 16.4567 37.573 16.4633C37.6298 16.4622 37.6859 16.4743 37.7371 16.4985L37.7561 16.5082C37.8381 16.5477 37.8986 16.6217 37.9213 16.7102C38.2026 18.0575 39.4126 18.8613 41.154 18.8613C42.7748 18.8613 43.5115 18.0081 43.5115 17.2357C43.5115 16.4717 42.8695 15.9054 41.7626 15.6716L41.7255 15.6639L39.2206 15.1744C36.8854 14.7298 35.4299 13.2703 35.4299 11.3707C35.4299 9.05798 37.899 7.10003 40.8146 7.10003ZM130.865 3.35927H132.816C133.047 3.37317 133.227 3.56097 133.236 3.79099L133.236 3.80832V7.49524H135.584C135.813 7.51139 135.991 7.69836 136 7.92665L136 7.94429V9.90226L136 9.9193C135.993 10.1388 135.82 10.3171 135.601 10.3283L135.584 10.3289H133.236V16.8809C133.236 17.9676 133.664 18.4167 134.767 18.4167C134.99 18.4128 135.214 18.3958 135.435 18.3657L135.517 18.3538C135.639 18.3331 135.763 18.3677 135.857 18.4482C135.941 18.5268 135.991 18.635 135.999 18.7499L136 18.7715V20.6172C136.001 20.8053 135.88 20.9719 135.701 21.0259C135.186 21.1706 134.655 21.2433 134.121 21.242L134.049 21.2414C131.719 21.2414 130.265 19.7493 130.236 17.336L130.236 17.2626V10.3558H128.204C127.982 10.3427 127.804 10.1679 127.785 9.9472L127.784 9.92921V7.96224C127.783 7.73019 127.959 7.53707 128.187 7.51455L128.204 7.51319L128.75 7.51312L128.808 7.51207C129.446 7.49365 130.425 7.23376 130.445 5.80236L130.445 5.75726V3.80832C130.445 3.57627 130.62 3.38315 130.848 3.36063L130.865 3.35927ZM92.9415 7.10257L92.9926 7.10457H92.988C95.2868 7.10457 97.6073 8.71541 97.6535 12.2335L97.6542 12.3407V20.6576C97.6438 20.8807 97.4714 21.061 97.2524 21.0828L97.2345 21.0842H95.0956C94.8741 21.071 94.6969 20.8963 94.6772 20.6756L94.6759 20.6576V12.6102L94.6755 12.5482C94.6625 11.5228 94.316 9.87529 92.2161 9.87529C90.6641 9.87529 89.5587 11.0901 89.5368 12.8573L89.5364 12.911V20.6576C89.526 20.8807 89.3544 21.061 89.1347 21.0828L89.1168 21.0842H86.9518C86.7295 21.071 86.5524 20.8963 86.5333 20.6756L86.5321 20.6576V12.6102L86.5317 12.5482C86.5187 11.5228 86.1722 9.87529 84.0715 9.87529C82.4581 9.87529 81.3656 11.0813 81.3439 12.8832L81.3436 12.938V20.6576C81.3324 20.8807 81.1608 21.061 80.9418 21.0828L80.9239 21.0842H78.785C78.565 21.0689 78.3901 20.8947 78.3711 20.6755L78.3699 20.6576V7.91287C78.3803 7.69132 78.5498 7.51162 78.7673 7.48781L78.785 7.48623H80.8435C81.065 7.49935 81.2429 7.67415 81.262 7.89487L81.2632 7.91287V8.6808C82.1891 7.65976 83.5055 7.08609 84.8794 7.10457C86.4708 7.05766 87.9558 7.90385 88.7331 9.30046C89.6588 7.87786 91.2548 7.04561 92.9415 7.10257ZM124.967 8.68973C125.786 9.77542 126.209 11.1108 126.165 12.4718L126.163 12.5293V20.6576C126.152 20.8792 125.983 21.0588 125.766 21.0827L125.748 21.0842H123.583C123.361 21.071 123.183 20.8963 123.164 20.6756L123.162 20.6576V12.965C123.162 10.9531 122.22 9.92921 120.435 9.92921C119.646 9.90356 118.891 10.257 118.403 10.8812C117.93 11.5664 117.686 12.3841 117.705 13.2168L117.707 13.2658V20.6576C117.695 20.8807 117.524 21.061 117.305 21.0828L117.287 21.0842H115.126C114.904 21.071 114.726 20.8963 114.707 20.6756L114.706 20.6576V7.90385C114.717 7.68074 114.889 7.50048 115.108 7.47864L115.126 7.47722H117.238C117.458 7.49252 117.633 7.66679 117.652 7.88598L117.653 7.90385V8.80203C118.559 7.69812 119.918 7.07261 121.341 7.10457C122.727 7.04496 124.065 7.62949 124.967 8.68973ZM0.517948 15.5427H15.891C16.1735 15.5451 16.4017 15.7726 16.4088 16.0545L16.409 16.0726V18.0081C16.4113 18.2922 16.189 18.5256 15.9089 18.5375L15.8909 18.538H0.517948C0.235396 18.5356 0.00725223 18.308 0 18.0261V18.008V16.0725V16.0544C0.00710093 15.7787 0.225653 15.555 0.499605 15.5431L0.517948 15.5427ZM69.3059 9.95616C67.1984 9.95616 65.8589 11.4651 65.8589 13.89C65.8589 16.3151 67.1805 17.8194 69.3059 17.8194C71.3329 17.8194 72.6993 16.2387 72.6993 13.89C72.6993 11.5369 71.3329 9.95616 69.3059 9.95616ZM51.4426 12.58L51.4369 12.6281H57.7906C57.6359 10.921 56.4397 9.85637 54.6481 9.83525L54.5936 9.83493C53.015 9.80911 51.6707 10.9704 51.449 12.5325L51.4426 12.58ZM102.839 12.58L102.833 12.6281H109.188C109.033 10.921 107.836 9.85637 106.045 9.83525L105.99 9.83493C104.412 9.80911 103.067 10.9704 102.846 12.5325L102.839 12.58ZM17.8154 0.772561C17.9485 0.820856 18.0564 0.921295 18.1145 1.051C18.1679 1.18195 18.1679 1.32875 18.1145 1.45962L17.4448 3.25598C17.352 3.52233 17.0624 3.6629 16.7974 3.57031C13.2887 2.33885 9.39534 3.03854 6.52786 5.41597C4.7408 6.92041 3.4719 8.95423 2.90228 11.227C2.84331 11.4565 2.63784 11.617 2.40219 11.6177H2.28609L0.446497 11.1731C0.309337 11.1407 0.191553 11.053 0.12056 10.9306H0.1116C0.0371619 10.8083 0.0161782 10.6605 0.0536272 10.522C0.78415 7.61262 2.41873 5.01367 4.71951 3.10324C8.37802 0.0739515 13.3455 -0.810133 17.8154 0.772561ZM11.0063 8.5326H26.3793C26.6548 8.53486 26.88 8.75163 26.8964 9.02612L26.8972 9.04451V10.98C26.8996 11.2642 26.6774 11.4976 26.3972 11.5095L26.3793 11.51H11.0063C10.7256 11.5052 10.5 11.2785 10.4929 10.9984L10.4927 10.98V9.06245C10.4903 8.78013 10.7098 8.54762 10.988 8.53323L11.0063 8.5326ZM21.6781 2.6272L21.7046 2.627L21.7312 2.62723C22.5843 2.63706 23.2712 3.33087 23.2805 4.1857L23.2806 4.21247C23.2806 4.2214 23.2805 4.23033 23.2803 4.23919C23.2656 5.11457 22.548 5.8121 21.6776 5.79724C20.8072 5.78237 20.1137 5.06066 20.1285 4.18535C20.143 3.32776 20.8319 2.64091 21.6781 2.6272Z" fill="white"/>
</g>
</svg>
