<svg width="146" height="22" viewBox="0 0 146 22" fill="none" xmlns="http://www.w3.org/2000/svg">
<path d="M138.617 9.66264V12.6575H140.756V15.6288C140.762 15.8564 140.752 16.0993 140.72 16.3083L140.702 16.4098C140.698 16.4324 140.694 16.4557 140.689 16.4795L140.672 16.5526C140.668 16.565 140.665 16.5776 140.661 16.5902L140.636 16.6673C140.444 17.2144 139.865 17.9078 138.563 17.9078C137.177 17.9078 136.62 17.1119 136.468 16.5526L136.45 16.4795L136.437 16.4098C136.399 16.1807 136.382 15.8943 136.382 15.6288V6.24383C136.382 5.94875 136.4 5.62887 136.455 5.36828L136.491 5.20993C136.494 5.19896 136.497 5.18781 136.5 5.1765L136.52 5.10676C136.524 5.09484 136.528 5.08278 136.532 5.07059L136.558 4.99604C136.756 4.47751 137.279 3.7869 138.552 3.7869C139.534 3.7869 140.063 4.18072 140.346 4.58776L140.396 4.66414C140.412 4.68959 140.427 4.715 140.441 4.74027L140.48 4.8156L140.515 4.88956L140.545 4.96161L140.571 5.03117L140.593 5.0977L140.611 5.16064L140.626 5.21942L140.638 5.2735C140.644 5.3004 140.649 5.32895 140.653 5.35863L140.666 5.45056C140.668 5.46627 140.669 5.48214 140.671 5.49809L140.684 5.64224L140.693 5.78048L140.7 5.96898L140.702 6.06558V7.20519H145.958L145.959 6.49578L145.963 6.24207L145.962 6.0454L145.957 5.81641L145.953 5.69313L145.943 5.50097L145.93 5.30412L145.918 5.17252C145.563 1.70569 142.914 0.371853 139.691 0.139754L139.476 0.125902L139.258 0.115246C139.149 0.110706 139.04 0.107339 138.93 0.105107L138.709 0.102146C138.672 0.101779 138.635 0.101779 138.598 0.101779L138.376 0.103266C138.34 0.103763 138.303 0.104387 138.266 0.105137L138.047 0.111177L137.829 0.120334L137.612 0.132675L137.398 0.148267C137.327 0.154013 137.256 0.160312 137.185 0.167175L136.975 0.189466C136.94 0.193467 136.905 0.197611 136.87 0.201901L136.663 0.229391C136.181 0.297647 135.718 0.394884 135.279 0.524888L135.092 0.582621C133.055 1.24 131.575 2.63766 131.271 5.17252L131.24 5.4539L131.219 5.67175L131.198 5.90016L131.182 6.1274C131.172 6.2759 131.166 6.4158 131.166 6.5315L131.167 15.2755L131.168 15.384L131.173 15.549L131.178 15.6646L131.185 15.7881L131.195 15.9224L131.207 16.0704L131.23 16.3242L131.249 16.519C131.544 19.7406 134.026 21.1737 137.063 21.5118L137.276 21.5336C137.632 21.5671 137.995 21.5859 138.362 21.5913L138.583 21.5929L138.806 21.5913C139.175 21.5859 139.54 21.5671 139.897 21.5336L140.111 21.5118C143.157 21.1737 145.623 19.7406 145.923 16.519L145.948 16.2349L145.966 15.9945L145.982 15.7252L145.991 15.4932L146 15.1647V9.66264H138.617ZM102.373 0.654178H97.0942V15.8453C97.1025 16.11 97.0942 16.4074 97.0478 16.6255L97.0323 16.6916L97.013 16.762C97.006 16.7861 96.9982 16.8108 96.9897 16.836L96.9621 16.913C96.763 17.4353 96.2557 18.1169 95.042 18.1169C93.9039 18.1169 93.3843 17.5018 93.1667 16.9925L93.1348 16.913C93.1299 16.9 93.1251 16.887 93.1206 16.8742L93.0957 16.7986L93.0752 16.7263C93.0721 16.7146 93.0692 16.703 93.0664 16.6916L93.0518 16.6255C92.999 16.4074 92.9923 16.11 92.999 15.8453V0.654178H87.7219V15.3738L87.721 15.4922L87.7228 15.6991L87.7302 16.0036L87.7447 16.3736L87.7548 16.5599L87.7616 16.6588L87.7683 16.7315C88.0269 19.4548 89.6508 20.8724 91.9442 21.4655L92.1396 21.5137C92.5663 21.6139 93.0148 21.6869 93.4809 21.7356L93.6972 21.7564L93.9159 21.7738L94.1369 21.7879C94.2479 21.7942 94.3598 21.7992 94.4725 21.803L94.6988 21.8091L94.9272 21.8122C94.9654 21.8125 95.0037 21.8125 95.042 21.8125L95.2718 21.811C95.3099 21.8105 95.3479 21.8099 95.3859 21.8091L95.6126 21.803C95.7255 21.7992 95.8376 21.7942 95.9488 21.7879L96.1702 21.7738L96.3893 21.7564L96.6059 21.7356C99.6933 21.4131 102.009 20.0302 102.328 16.7315L102.332 16.6987L102.341 16.6123L102.354 16.4399L102.365 16.2314L102.371 16.0806L102.378 15.8493L102.38 15.6991L102.379 15.5579L102.376 15.4306C102.375 15.4109 102.374 15.3919 102.373 15.3738V0.654178ZM53.8715 0.654178L51.2383 16.7057L48.6067 0.654178H40.0918L39.6402 21.1887H44.8568L44.998 2.17928L48.5872 21.1887H53.8798L57.4722 2.17928L57.6139 21.1887H62.8436L62.3767 0.654178H53.8715ZM22.3454 0.654178L18.4791 21.1887H24.1172L27.0307 2.17928L29.8743 21.1887H35.4733L31.6231 0.654178H22.3454ZM120.821 17.1869L115.906 0.654178H108.16V20.9746H113.284L112.987 3.91294L118.265 20.9746H125.694V0.654178H120.536L120.821 17.1869ZM73.4269 5.99835C73.3342 5.59281 73.361 5.16197 73.409 4.93679C73.4226 4.87703 73.4386 4.81678 73.4575 4.75662L73.4881 4.66652C73.6964 4.09725 74.1835 3.56252 75.3006 3.56252C76.5061 3.56252 77.2128 4.30186 77.2128 5.41141V6.66703H82.3586V5.2358C82.3586 2.00593 80.21 0.763481 77.9141 0.328013L77.7251 0.294014L77.5357 0.263504L77.3462 0.236337L77.1567 0.212367L76.9675 0.191449L76.7789 0.173437C76.7161 0.167902 76.6535 0.162826 76.5911 0.158186L76.4044 0.14555L76.219 0.135382L76.0351 0.127539L75.8531 0.121873L75.6731 0.118239L75.4075 0.116281L75.2904 0.116687L75.0576 0.119955C75.019 0.120775 74.9804 0.121733 74.942 0.122831L74.7122 0.1311C74.636 0.13442 74.5601 0.138308 74.4846 0.142772L74.2592 0.1579C71.1199 0.394153 68.6702 1.66279 68.1801 4.63778C68.0351 5.54377 67.9992 6.34798 68.23 7.3742C68.5932 9.06056 70.0211 10.2606 71.6602 11.2671L71.9139 11.4205C71.9565 11.4458 71.9991 11.471 72.0418 11.4961L72.2993 11.6453L72.5583 11.7921L72.8182 11.9366L73.2083 12.1498L74.2334 12.7024L74.4824 12.8383L74.7272 12.9737L74.9671 13.1089L75.2012 13.2442C76.3184 13.8982 77.2134 14.5616 77.5355 15.3546C77.7137 15.8257 77.6748 16.4197 77.5886 16.7986L77.5738 16.8597C77.5525 16.9507 77.5258 17.0419 77.4921 17.1315L77.4561 17.2205C77.219 17.7654 76.7008 18.23 75.5621 18.23C74.2634 18.23 73.4816 17.4954 73.4816 16.3882L73.48 14.4175H67.9413V15.984C67.9413 19.6607 70.3124 21.2578 73.2819 21.732L73.5029 21.7651C73.651 21.7858 73.8004 21.8038 73.9509 21.8193L74.1775 21.8406C74.4429 21.8632 74.7114 21.8781 74.9819 21.886L75.2143 21.891C75.2531 21.8916 75.2919 21.892 75.3308 21.8923L75.4474 21.8927C75.5251 21.8927 75.6025 21.8921 75.6796 21.891L75.9099 21.8861C75.9481 21.885 75.9863 21.8837 76.0243 21.8824L76.2518 21.8723C76.3273 21.8684 76.4024 21.864 76.4772 21.8589L76.7004 21.842C76.8484 21.8295 76.995 21.8147 77.1399 21.7975L77.356 21.7698L77.5695 21.7385C77.6403 21.7274 77.7105 21.7158 77.7803 21.7035L77.9884 21.6646C80.5021 21.1691 82.3724 19.8255 82.748 17.2422C82.7997 16.8569 82.8315 16.5011 82.8486 16.1759L82.8579 15.9636C82.8591 15.9289 82.8602 15.8947 82.8611 15.8608L82.8645 15.6622V15.4729L82.8613 15.2928L82.8553 15.1221L82.8469 14.9608C82.8453 14.9348 82.8437 14.9091 82.8419 14.8838L82.8305 14.7368L82.8175 14.5995L82.8032 14.4718L82.7803 14.2986L82.7566 14.1476L82.7256 13.9812L82.7113 13.9131C82.3488 12.1249 80.7576 10.8619 78.9898 9.82219L78.7362 9.67515L78.4808 9.53095L78.2244 9.38941L77.8394 9.18163L77.3287 8.91203L76.4579 8.45632L76.0995 8.26557C76.0603 8.24449 76.0214 8.22344 75.9827 8.20242L75.7534 8.0766L75.5306 7.95129C74.4337 7.32562 73.6047 6.7113 73.4269 5.99835ZM5.54776 5.94798C5.45304 5.55989 5.46785 5.15163 5.51644 4.9144L5.53656 4.82557L5.55939 4.73769C5.73323 4.12108 6.20851 3.48552 7.43695 3.48552C8.65773 3.48552 9.37652 4.23199 9.37652 5.3505V6.62141H14.5826V5.17884C14.5826 2.09667 12.6336 0.802247 10.4559 0.295904L10.2659 0.253836C10.1073 0.220394 9.94767 0.190938 9.78778 0.165088L9.59581 0.135774L9.40383 0.109775L9.21207 0.0869461L9.02079 0.0671401C8.95713 0.0610258 8.8936 0.0553909 8.83024 0.0502113L8.64067 0.0360135L8.45234 0.0244008L8.2655 0.015227L8.08039 0.00834607L7.89726 0.00361199L7.62686 0H7.53799C7.45994 0 7.38219 0.000536641 7.30476 0.00161862L7.07343 0.00650923C6.91987 0.0108719 6.76765 0.0174507 6.61689 0.0263151L6.39188 0.0413346C6.35457 0.0441265 6.31735 0.0470634 6.28024 0.0501463L6.05872 0.0704064C5.98529 0.0777499 5.91226 0.0856867 5.83966 0.0942252L5.62316 0.121655C5.44384 0.146032 5.26729 0.174225 5.09376 0.20637L4.88701 0.246849L4.68326 0.291174L4.48263 0.339396C4.41628 0.356126 4.35047 0.373514 4.28521 0.391569L4.09109 0.447744C2.07068 1.05877 0.614652 2.34028 0.247103 4.56395C0.0954108 5.48444 0.069414 6.29419 0.288645 7.33175C0.674609 9.12475 2.24877 10.3734 4.00987 11.4226L4.26882 11.5747C4.31216 11.5999 4.35558 11.6249 4.39907 11.6498L4.66071 11.7982L5.05468 12.0165L5.57916 12.3012L6.35276 12.7183L6.72857 12.9241L7.09391 13.1292L7.33049 13.2659C7.36941 13.2887 7.40806 13.3115 7.44643 13.3343L7.67315 13.4715C8.64001 14.0673 9.39726 14.681 9.68956 15.4005C9.881 15.8683 9.83623 16.4621 9.74576 16.8533L9.7303 16.9166C9.70796 17.0066 9.68052 17.0968 9.6466 17.1855L9.61047 17.2737C9.36726 17.8282 8.84531 18.3038 7.69183 18.3038C6.38797 18.3038 5.60807 17.5565 5.60807 16.4341L5.60083 14.4581H0V16.0283C0 20.4358 3.37767 21.8844 7.11832 21.9933L7.35256 21.9983L7.58757 22L7.81996 21.9984C7.93571 21.9968 8.05078 21.9939 8.1651 21.9898L8.39275 21.9799C8.50606 21.9741 8.6186 21.9671 8.7303 21.9587L8.95258 21.9402L9.17253 21.9183C9.24545 21.9103 9.31797 21.9018 9.39006 21.8927L9.60506 21.8636C9.67629 21.8533 9.74709 21.8423 9.81743 21.8308L10.0271 21.7943C12.6301 21.3148 14.5701 19.9563 14.9607 17.2992C15.0146 16.9196 15.0482 16.5684 15.067 16.2466L15.0774 16.0364L15.0837 15.835C15.0852 15.7693 15.0861 15.7051 15.0864 15.6424L15.0857 15.4587L15.082 15.284L15.0757 15.1182L15.0671 14.9615L15.0566 14.814L15.0444 14.6757L15.0241 14.4856L15.0021 14.3165L14.9725 14.1243L14.9388 13.9379C14.5776 12.1709 13.0338 10.9138 11.297 9.87981L11.0415 9.73006C10.9988 9.70535 10.9559 9.68077 10.913 9.65631L10.6547 9.51097L10.3954 9.36831L10.1357 9.22814L9.87641 9.09025L8.73222 8.49272L8.36633 8.29979L8.12872 8.17233L7.89696 8.04555L7.67175 7.91927C7.6348 7.89825 7.59815 7.87724 7.56182 7.85625L7.34772 7.73032C6.40237 7.16379 5.70819 6.59697 5.54776 5.94798Z" fill="white" fill-opacity="0.28"/>
</svg>
