<svg width="152" height="20" viewBox="0 0 152 20" fill="none" xmlns="http://www.w3.org/2000/svg">
<path d="M65.6195 13.0119H75.6634L70.3526 4.36363L60.6054 20H56.1692L68.0251 1.21738C68.5406 0.458488 69.3997 0 70.3526 0C71.2741 0 72.1332 0.442686 72.6331 1.18577L84.5358 20H80.0996L78.0065 16.5059H67.8376L65.6195 13.0119ZM111.7 16.5059V0.189724H107.935V18.1028C107.935 18.5929 108.123 19.0672 108.482 19.4308C108.841 19.7945 109.325 20 109.856 20H127.023L129.241 16.5059H111.7ZM49.4212 13.581C53.0765 13.581 56.0443 10.5929 56.0443 6.89328C56.0443 3.19368 53.0765 0.189724 49.4212 0.189724H32.9527V20H36.7157V3.6838H49.1713C50.9209 3.6838 52.3267 5.12252 52.3267 6.89328C52.3267 8.66403 50.9209 10.1028 49.1713 10.1028L38.5589 10.087L49.7961 20H55.2633L47.7031 13.581H49.4212ZM9.7878 20C4.38466 20 0 15.5731 0 10.1028C0 4.6324 4.38466 0.189724 9.7878 0.189724H21.164C26.5686 0.189724 30.9502 4.6324 30.9502 10.1028C30.9502 15.5731 26.5686 20 21.164 20H9.7878ZM20.911 16.5059C24.4115 16.5059 27.2466 13.6443 27.2466 10.1028C27.2466 6.56126 24.4115 3.6838 20.911 3.6838H10.0392C6.54027 3.6838 3.70355 6.56126 3.70355 10.1028C3.70355 13.6443 6.54027 16.5059 10.0392 16.5059H20.911ZM92.3928 20C86.9881 20 82.5989 15.5731 82.5989 10.1028C82.5989 4.6324 86.9881 0.189724 92.3928 0.189724H105.904L103.702 3.6838H92.6427C89.1437 3.6838 86.3009 6.56126 86.3009 10.1028C86.3009 13.6443 89.1437 16.5059 92.6427 16.5059H106.217L103.999 20H92.3928ZM138.426 16.5059C135.536 16.5059 133.084 14.5454 132.334 11.8419H148.423L150.641 8.34782H132.334C133.084 5.66008 135.536 3.6838 138.426 3.6838H149.47L151.703 0.189724H138.176C132.771 0.189724 128.382 4.6324 128.382 10.1028C128.382 15.5731 132.771 20 138.176 20H149.782L152 16.5059H138.426Z" fill="white" fill-opacity="0.28"/>
</svg>
