<?xml version="1.0" standalone="no"?>
<!DOCTYPE svg PUBLIC "-//W3C//DTD SVG 20010904//EN"
 "http://www.w3.org/TR/2001/REC-SVG-20010904/DTD/svg10.dtd">
<svg version="1.0" xmlns="http://www.w3.org/2000/svg"
 width="260.000000pt" height="260.000000pt" viewBox="0 0 260.000000 260.000000"
 preserveAspectRatio="xMidYMid meet">
<metadata>
Created by potrace 1.14, written by Peter Selinger 2001-2017
</metadata>
<g transform="translate(0.000000,260.000000) scale(0.100000,-0.100000)"
fill="#000000" stroke="none">
<path d="M0 1300 l0 -1300 1300 0 1300 0 0 1300 0 1300 -1300 0 -1300 0 0
-1300z m916 588 c223 -397 364 -646 376 -662 16 -21 2 -44 249 394 51 91 118
210 150 265 l57 100 251 3 251 2 0 -695 0 -695 -235 0 -235 0 0 258 -1 257
-24 -40 c-14 -22 -80 -138 -147 -257 l-123 -218 -181 0 -182 0 -226 396 -227
397 3 141 3 141 149 -255 c82 -140 204 -347 270 -460 l122 -205 89 0 89 0 266
455 265 455 5 -455 5 -455 78 -3 77 -3 -2 543 -3 543 -121 3 -122 3 -193 -333
c-106 -183 -227 -392 -268 -465 -42 -73 -78 -132 -81 -132 -3 0 -111 186 -240
414 -129 228 -249 436 -265 462 l-30 48 -123 3 -122 3 0 -546 0 -545 75 0 74
0 3 143 3 142 77 -130 78 -130 0 -87 0 -88 -235 0 -235 0 0 695 0 695 249 0
250 0 57 -102z"/>
</g>
</svg>
